<svg width="680" height="200" viewBox="0 0 680 200" role="img" xmlns="http://www.w3.org/2000/svg">
  <title>Pablo Danilo — Front-End Developer</title>

  <style>
    .bg { fill: #0d1117; }
    .border { fill: none; stroke: #30363d; stroke-width: 0.5; }
    .name { font-family: 'SF Mono', 'Fira Code', monospace; font-size: 32px; font-weight: 600; fill: #e6edf3; letter-spacing: -0.5px; }
    .role { font-family: 'SF Mono', 'Fira Code', monospace; font-size: 13px; font-weight: 400; fill: #7d8590; letter-spacing: 0.06em; }
    .tag { font-family: 'SF Mono', 'Fira Code', monospace; font-size: 11px; fill: #388bfd; }
    .pill { fill: #161b22; stroke: #30363d; stroke-width: 0.5; }
    .pill-text { font-family: 'SF Mono', 'Fira Code', monospace; font-size: 11px; fill: #8b949e; }
    .dot { fill: #3fb950; }
    .line { stroke: #21262d; stroke-width: 0.5; }
  </style>

  <rect width="680" height="200" rx="8" class="bg"/>
  <rect x="0.25" y="0.25" width="679.5" height="199.5" rx="8" class="border"/>

  <line x1="40" y1="0" x2="40" y2="200" class="line"/>
  <text x="20" y="108" text-anchor="middle" font-family="'SF Mono', monospace" font-size="9" fill="#3d444d" transform="rotate(-90, 20, 108)" letter-spacing="3">README.md</text>

  <text x="68" y="72" class="name">Pablo Danilo</text>
  <text x="68" y="94" class="role">front-end developer</text>

  <circle cx="68" cy="117" r="4" class="dot"/>
  <text x="80" y="121" class="role" font-size="11">available for new projects</text>

  <line x1="68" y1="138" x2="612" y2="138" class="line"/>

  <text x="68" y="160" class="tag">&lt;stack&gt;</text>

  <g transform="translate(120, 148)"><rect x="0" y="0" width="52" height="20" rx="3" class="pill"/><text x="26" y="14" text-anchor="middle" class="pill-text">HTML5</text></g>
  <g transform="translate(178, 148)"><rect x="0" y="0" width="42" height="20" rx="3" class="pill"/><text x="21" y="14" text-anchor="middle" class="pill-text">CSS3</text></g>
  <g transform="translate(226, 148)"><rect x="0" y="0" width="68" height="20" rx="3" class="pill"/><text x="34" y="14" text-anchor="middle" class="pill-text">JavaScript</text></g>
  <g transform="translate(300, 148)"><rect x="0" y="0" width="46" height="20" rx="3" class="pill"/><text x="23" y="14" text-anchor="middle" class="pill-text">React</text></g>
  <g transform="translate(352, 148)"><rect x="0" y="0" width="32" height="20" rx="3" class="pill"/><text x="16" y="14" text-anchor="middle" class="pill-text">Git</text></g>
  <g transform="translate(390, 148)"><rect x="0" y="0" width="52" height="20" rx="3" class="pill"/><text x="26" y="14" text-anchor="middle" class="pill-text">GitHub</text></g>
  <g transform="translate(448, 148)"><rect x="0" y="0" width="44" height="20" rx="3" class="pill"/><text x="22" y="14" text-anchor="middle" class="pill-text">Figma</text></g>

  <text x="498" y="160" class="tag">&lt;/stack&gt;</text>

  <text x="68" y="185" font-family="'SF Mono', monospace" font-size="11" fill="#3d444d">// design · performance · real impact</text>
  <text x="612" y="185" text-anchor="end" font-family="'SF Mono', monospace" font-size="9" fill="#3d444d">pdanilodev</text>
</svg>
